<?xml version="1.0" encoding="UTF-8"?>
<svg version="1.1" xmlns="http://www.w3.org/2000/svg" width="512" height="512">
<path d="M0 0 C1.01790619 0.00215515 2.03581238 0.0043103 3.08456421 0.00653076 C17.69363523 0.05620146 32.02575853 0.30709809 46.375 3.3125 C47.34985352 3.51117676 48.32470703 3.70985352 49.32910156 3.91455078 C97.7109774 14.03517194 141.69928269 35.9516877 177.375 70.3125 C178.3640332 71.26068604 178.3640332 71.26068604 179.37304688 72.22802734 C188.86130305 81.37247479 197.6012044 90.66984009 205.375 101.3125 C206.23306152 102.46355017 207.09113451 103.61459177 207.94921875 104.765625 C213.98736829 112.95680614 219.34595521 121.47054105 224.375 130.3125 C224.73948242 130.94430176 225.10396484 131.57610352 225.47949219 132.22705078 C247.08534998 169.97532572 256.85198095 212.74189997 256.6875 255.9375 C256.68534485 256.95540619 256.6831897 257.97331238 256.68096924 259.02206421 C256.63129854 273.63113523 256.38040191 287.96325853 253.375 302.3125 C253.07698486 303.77478027 253.07698486 303.77478027 252.77294922 305.26660156 C242.65232806 353.6484774 220.7358123 397.63678269 186.375 433.3125 C185.74287598 433.97185547 185.11075195 434.63121094 184.45947266 435.31054688 C175.31502521 444.79880305 166.01765991 453.5387044 155.375 461.3125 C154.22394983 462.17056152 153.07290823 463.02863451 151.921875 463.88671875 C143.73224019 469.92427396 135.22961724 475.30707302 126.375 480.3125 C125.66778809 480.7146875 124.96057617 481.116875 124.23193359 481.53125 C101.09654164 494.5566741 75.92537591 503.30551461 49.9375 508.625 C49.21860596 508.77235596 48.49971191 508.91971191 47.7590332 509.0715332 C33.08339502 511.86090125 18.55831162 512.66142619 3.64770508 512.62817383 C0.70811513 512.6250221 -2.2304558 512.64854926 -5.16992188 512.67382812 C-18.54306192 512.71848737 -31.43916711 511.51301542 -44.625 509.3125 C-46.33055054 509.03031616 -46.33055054 509.03031616 -48.07055664 508.74243164 C-91.33802759 500.97044532 -132.38793216 480.98345309 -165.625 452.3125 C-166.37007813 451.67828125 -167.11515625 451.0440625 -167.8828125 450.390625 C-181.38779833 438.57948485 -194.05918743 425.82889772 -204.625 411.3125 C-205.48149066 410.16255169 -206.33826433 409.01281411 -207.1953125 407.86328125 C-213.23534209 399.67315742 -218.61867614 391.16870382 -223.625 382.3125 C-224.0271875 381.60528809 -224.429375 380.89807617 -224.84375 380.16943359 C-237.8691741 357.03404164 -246.61801461 331.86287591 -251.9375 305.875 C-252.08485596 305.15610596 -252.23221191 304.43721191 -252.3840332 303.6965332 C-255.35789088 288.05024391 -255.99800362 272.57681954 -255.9375 256.6875 C-255.93534485 255.66959381 -255.9331897 254.65168762 -255.93096924 253.60293579 C-255.88129854 238.99386477 -255.63040191 224.66174147 -252.625 210.3125 C-252.42632324 209.33764648 -252.22764648 208.36279297 -252.02294922 207.35839844 C-241.90232806 158.9765226 -219.9858123 114.98821731 -185.625 79.3125 C-184.99287598 78.65314453 -184.36075195 77.99378906 -183.70947266 77.31445312 C-174.56502521 67.82619695 -165.26765991 59.0862956 -154.625 51.3125 C-153.47394983 50.45443848 -152.32290823 49.59636549 -151.171875 48.73828125 C-142.98224019 42.70072604 -134.47961724 37.31792698 -125.625 32.3125 C-124.91778809 31.9103125 -124.21057617 31.508125 -123.48193359 31.09375 C-100.34654164 18.0683259 -75.17537591 9.31948539 -49.1875 4 C-48.46860596 3.85264404 -47.74971191 3.70528809 -47.0090332 3.5534668 C-31.36274391 0.57960912 -15.88931954 -0.06050362 0 0 Z " fill="#2A8CFF" transform="translate(255.625,-0.3125)"/>
<path d="M0 0 C4.49253569 1.96928793 8.40761244 4.6686 12.43579102 7.44335938 C13.26001053 8.00350739 14.08423004 8.5636554 14.9334259 9.14077759 C16.71689784 10.35335068 18.49863397 11.56847996 20.27880859 12.78588867 C25.11372746 16.09132994 29.96250027 19.37632599 34.81079102 22.66210938 C35.81294647 23.34178772 36.81510193 24.02146606 37.84762573 24.72174072 C48.13271932 31.68657647 58.50696692 38.51292413 68.89282227 45.32617188 C84.35229815 55.47488934 99.72307499 65.74537542 115.03482056 76.11550903 C131.17322075 87.04224923 147.42426958 97.79168223 163.73266602 108.46289062 C164.62258743 109.04651871 165.51250885 109.63014679 166.42939758 110.23146057 C168.07665693 111.31165293 169.72528997 112.38975505 171.37565613 113.4651947 C186.98942988 123.71080484 186.98942988 123.71080484 188.89282227 128.82617188 C189.71793743 134.35131014 189.1559845 138.08428971 186.27186584 142.98348999 C183.69874984 146.42169479 180.20919798 148.5204717 176.64282227 150.83398438 C175.81435791 151.3884726 174.98589355 151.94296082 174.13232422 152.51425171 C171.39511648 154.34098563 168.64426554 156.14596588 165.89282227 157.95117188 C163.95317624 159.23961583 162.01438839 160.52935254 160.07641602 161.8203125 C155.0231326 165.18057198 149.95775917 168.52206422 144.88745117 171.85656738 C142.00631631 173.75152544 139.12694866 175.64913296 136.24829102 177.54785156 C128.96332002 182.352408 121.6770293 187.15491801 114.38305664 191.94580078 C100.76517126 200.89591379 87.24203402 209.97982835 73.74880981 219.11651611 C57.66378516 230.0045486 41.47163085 240.72405473 25.22875977 251.375 C24.34775101 251.95327042 23.46674225 252.53154083 22.55903625 253.12733459 C20.87072506 254.23547349 19.18177282 255.34263649 17.49211121 256.44871521 C12.52959874 259.70851185 7.66673025 263.05121044 2.93481445 266.64038086 C-1.12802702 268.99968515 -5.50592638 269.31236842 -10.10717773 268.82617188 C-13.99357957 267.60149516 -16.47986962 265.64167242 -18.98217773 262.38867188 C-21.47800776 256.70372571 -21.25783981 251.03380088 -21.26107788 244.93289185 C-21.26765126 243.42706128 -21.26765126 243.42706128 -21.27435744 241.89080989 C-21.28772446 238.52307056 -21.29391952 235.15535738 -21.30004883 231.78759766 C-21.30795121 229.37460207 -21.31622025 226.96160767 -21.3248291 224.5486145 C-21.34876423 217.30700732 -21.36397021 210.06539843 -21.37688917 202.82376558 C-21.38060349 200.7779521 -21.38457649 198.73213931 -21.38864183 196.6863265 C-21.41387278 183.97587415 -21.43592068 171.26542066 -21.44836998 158.55494881 C-21.45129953 155.61361817 -21.45426123 152.67228758 -21.45727539 149.73095703 C-21.45802144 148.99992948 -21.45876749 148.26890192 -21.45953615 147.51572202 C-21.47219605 135.66755255 -21.50543121 123.81953292 -21.54707722 111.97143354 C-21.58950126 99.8021369 -21.61306523 87.63291702 -21.61829054 75.46354663 C-21.62170334 68.63281295 -21.63344342 61.80231381 -21.66639328 54.97165298 C-21.69732942 48.5480965 -21.70280807 42.12483695 -21.69100952 35.70121384 C-21.69078828 33.34335049 -21.69913463 30.98546849 -21.71666336 28.62767029 C-21.73929 25.40909149 -21.73108909 22.19200494 -21.71517944 18.97341919 C-21.72906153 18.0400464 -21.74294362 17.10667361 -21.75724638 16.14501679 C-21.67955398 9.76784685 -20.313839 6.64669275 -16.10717773 1.82617188 C-11.14986825 -2.32724959 -5.78638452 -2.18597759 0 0 Z " fill="#DEF1FF" transform="translate(202.107177734375,122.173828125)"/>
</svg>
