<?xml version="1.0" standalone="no"?>
<!DOCTYPE svg PUBLIC "-//W3C//DTD SVG 20010904//EN"
 "http://www.w3.org/TR/2001/REC-SVG-20010904/DTD/svg10.dtd">
<svg version="1.0" xmlns="http://www.w3.org/2000/svg"
 width="512.000000pt" height="512.000000pt" viewBox="0 0 512.000000 512.000000"
 preserveAspectRatio="xMidYMid meet">

<g transform="translate(0.000000,512.000000) scale(0.100000,-0.100000)"
fill="#000000" stroke="none">
<path d="M3490 4236 c-290 -61 -499 -313 -503 -606 -1 -52 2 -107 5 -121 8
-26 4 -28 -460 -244 -257 -120 -481 -225 -498 -233 -31 -14 -32 -14 -74 32
-58 63 -166 133 -253 165 -63 22 -87 26 -202 26 -110 0 -140 -4 -196 -23 -191
-66 -344 -219 -406 -407 -22 -68 -27 -98 -27 -195 0 -103 3 -124 30 -200 17
-47 47 -111 68 -142 50 -76 158 -176 233 -216 127 -67 302 -90 442 -57 82 20
202 82 269 141 28 25 56 44 60 42 4 -2 207 -117 451 -257 398 -228 442 -256
437 -275 -60 -214 3 -446 163 -607 72 -71 159 -125 261 -160 86 -30 265 -32
355 -5 171 51 318 174 392 326 54 111 68 174 67 295 -3 213 -102 395 -281 515
-84 56 -193 94 -298 104 -151 15 -333 -46 -459 -151 l-59 -50 -449 256 c-426
243 -449 257 -444 281 19 91 25 172 18 228 -8 58 -7 64 12 74 12 7 235 112
496 234 l475 222 71 -68 c278 -264 719 -224 940 85 115 162 151 365 98 546
-59 201 -232 374 -434 433 -77 23 -220 29 -300 12z m229 -285 c111 -34 197
-121 233 -233 53 -167 -33 -349 -200 -425 -116 -54 -270 -28 -369 62 -153 137
-158 371 -11 511 98 94 221 124 347 85z m-2051 -1011 c102 -54 162 -139 184
-258 22 -116 -37 -260 -135 -332 -111 -81 -257 -93 -375 -30 -73 39 -124 92
-161 170 -37 79 -37 201 0 280 66 141 183 213 339 207 74 -3 93 -7 148 -37z
m1949 -1115 c74 -33 137 -96 176 -174 28 -58 32 -75 32 -146 -1 -66 -6 -91
-29 -143 -63 -136 -208 -223 -349 -208 -127 13 -241 95 -293 210 -39 85 -40
196 -2 277 84 183 289 264 465 184z"/>
</g>
</svg>
