<?xml version="1.0" encoding="UTF-8"?>
<svg version="1.1" xmlns="http://www.w3.org/2000/svg" width="512" height="512">
<path d="M0 0 C0.82982895 -0.00708481 1.6596579 -0.01416962 2.51463318 -0.02146912 C3.41654892 -0.0189917 4.31846466 -0.01651428 5.24771118 -0.01396179 C6.20426102 -0.01907272 7.16081085 -0.02418365 8.14634705 -0.02944946 C11.30991871 -0.04335472 14.47327273 -0.04238785 17.63687134 -0.04008484 C19.83638592 -0.0439715 22.03589974 -0.04830611 24.2354126 -0.05307007 C28.8471215 -0.06053448 33.45875385 -0.06023956 38.07046509 -0.05497742 C43.97756622 -0.04918524 49.88435356 -0.06610681 55.79140282 -0.08932209 C60.33475575 -0.10406169 64.87803318 -0.10493076 69.42140579 -0.10181236 C71.59908291 -0.10232555 73.77676425 -0.10756277 75.95441818 -0.11762428 C79.00160792 -0.12997427 82.04818731 -0.12320513 85.09536743 -0.11161804 C86.44216835 -0.12308365 86.44216835 -0.12308365 87.81617737 -0.13478088 C94.2600173 -0.08068058 98.37705208 1.24079494 103.42593384 5.44819641 C110.17211722 13.43709779 110.38039124 20.417586 110.31559753 30.51872253 C110.32092729 31.97043695 110.32799544 33.42214584 110.33664459 34.87384427 C110.35524245 38.84993657 110.34897691 42.82565568 110.33849156 46.8017633 C110.33149134 51.0950021 110.34750378 55.38816488 110.36048889 59.68138123 C110.38212092 68.08717705 110.38200395 76.49283744 110.37386335 84.89865194 C110.36756076 91.7319131 110.36870276 98.5651348 110.37513542 105.39839554 C110.37603708 106.37135155 110.37693873 107.34430755 110.37786771 108.34674708 C110.37971894 110.3233815 110.3815815 112.30001592 110.38345527 114.27665032 C110.4000312 132.80907772 110.39131654 151.34142897 110.37446969 169.87385179 C110.35977549 186.82188663 110.37439756 203.76974414 110.40323985 220.71775614 C110.43264611 238.12704809 110.44360238 255.53625823 110.43405765 272.94557393 C110.43303512 274.91550452 110.43204051 276.88543513 110.43107414 278.85536575 C110.43059775 279.82456554 110.43012136 280.79376534 110.42963054 281.79233482 C110.42746789 288.6145725 110.43726262 295.43673261 110.45184517 302.25895309 C110.46937771 310.57723192 110.46923802 318.89528475 110.44649351 327.21355473 C110.43535924 331.45589581 110.4321701 335.69783888 110.45079422 339.94016266 C110.46764108 343.82775236 110.4611919 347.7145982 110.43657743 351.60214008 C110.4317074 353.00448898 110.43517366 354.40689836 110.44806487 355.80919646 C110.52034568 364.2871977 109.87753971 371.22306935 104.80093384 378.26069641 C100.66438051 382.18314914 96.45998692 384.37010231 90.73558044 384.41459656 C89.91001648 384.42319702 89.08445251 384.43179749 88.23387146 384.44065857 C86.88031807 384.44704849 86.88031807 384.44704849 85.49942017 384.4535675 C84.54622894 384.461745 83.59303772 384.46992249 82.61096191 384.47834778 C79.45163602 384.50319051 76.29235506 384.51971604 73.13296509 384.53413391 C72.05347784 384.53945759 70.97399059 384.54478127 69.86179161 384.55026627 C64.14677007 384.57699447 58.43177034 384.59636944 52.71670532 384.61079407 C46.81972627 384.62743042 40.9233073 384.67220121 35.0265398 384.72316551 C30.48740513 384.7568572 25.94840302 384.7683737 21.40915489 384.77402115 C19.23588474 384.78072948 17.06262317 384.79594056 14.88947487 384.81991196 C11.84232885 384.85160323 8.79668837 384.85159382 5.74942017 384.8441925 C4.85717239 384.86059784 3.96492462 384.87700317 3.04563904 384.89390564 C-3.94689679 384.82463109 -8.64975027 382.61415029 -13.72612286 377.81790733 C-18.24276059 372.80948619 -19.44753806 367.67562109 -19.45633507 361.08146954 C-19.46278396 359.85588508 -19.46923285 358.63030063 -19.47587717 357.36757725 C-19.47293519 356.01584373 -19.46979978 354.66411061 -19.4664917 353.31237793 C-19.47022954 351.86993129 -19.47483159 350.42748667 -19.48022234 348.98504525 C-19.49245123 345.02540276 -19.49219201 341.06584477 -19.48983359 337.1061877 C-19.4894254 332.83408423 -19.5004648 328.56200784 -19.50994873 324.28991699 C-19.52655898 315.92164922 -19.53205828 307.55340962 -19.53317349 299.18512674 C-19.53412393 292.38280617 -19.53823403 285.58049489 -19.54457474 278.77817726 C-19.56218705 259.49107746 -19.5714136 240.20399991 -19.56991379 220.91689201 C-19.56983388 219.87720049 -19.56975396 218.83750897 -19.56967163 217.76631165 C-19.56958987 216.72535028 -19.56950811 215.68438891 -19.56942387 214.61188326 C-19.56861092 197.74067238 -19.58775079 180.86955078 -19.61594836 163.99836572 C-19.64467498 146.67390583 -19.65848879 129.34948948 -19.65676081 112.02500516 C-19.65609684 102.29911454 -19.66159214 92.57331751 -19.68311691 82.84744835 C-19.70132575 74.56682491 -19.70567847 66.28633749 -19.69209807 58.0057027 C-19.68556697 53.78177 -19.68545623 49.55809826 -19.70280457 45.33419037 C-19.71853419 41.46456473 -19.71567309 37.59540702 -19.6982363 33.7257928 C-19.69516614 32.32878014 -19.69879949 30.93173257 -19.70995645 29.53476109 C-19.77388609 20.959567 -19.62189785 12.91331066 -13.41974771 6.38893574 C-9.38507505 2.71757326 -5.59608247 0.01598713 0 0 Z " fill="#3A82F6" transform="translate(317.1990661621094,63.73930358886719)"/>
<path d="M0 0 C1.23834595 -0.0129007 1.23834595 -0.0129007 2.50170898 -0.02606201 C3.40407791 -0.03032196 4.30644684 -0.03458191 5.23616028 -0.03897095 C6.66594711 -0.05123718 6.66594711 -0.05123718 8.12461853 -0.06375122 C11.28394443 -0.08859395 14.44322538 -0.10511948 17.60261536 -0.11953735 C19.22184623 -0.12752287 19.22184623 -0.12752287 20.87378883 -0.13566971 C26.58881037 -0.16239791 32.3038101 -0.18177288 38.01887512 -0.19619751 C43.91585418 -0.21283386 49.81227314 -0.25760465 55.70904064 -0.30856895 C60.24817532 -0.34226064 64.78717743 -0.35377714 69.32642555 -0.35942459 C71.49969571 -0.36613292 73.67295727 -0.381344 75.84610558 -0.4053154 C78.89325159 -0.43700667 81.93889207 -0.43699726 84.98616028 -0.42959595 C86.32453194 -0.45420395 86.32453194 -0.45420395 87.68994141 -0.47930908 C94.68247724 -0.41003454 99.38533072 1.80044626 104.4617033 6.59668922 C108.97834104 11.60511037 110.1831185 16.73897546 110.19191551 23.33312702 C110.1983644 24.55871147 110.2048133 25.78429593 110.21145761 27.0470193 C110.20851563 28.39875283 110.20538022 29.75048595 110.20207214 31.10221863 C110.20580998 32.54466527 110.21041204 33.98710989 110.21580279 35.4295513 C110.22803168 39.3891938 110.22777246 43.34875179 110.22541404 47.30840886 C110.22500584 51.58051233 110.23604525 55.85258872 110.24552917 60.12467957 C110.26213943 68.49294734 110.26763873 76.86118693 110.26875393 85.22946981 C110.26970437 92.03179039 110.27381447 98.83410166 110.28015518 105.6364193 C110.29776749 124.9235191 110.30699404 144.21059664 110.30549423 163.49770454 C110.30541432 164.53739606 110.30533441 165.57708759 110.30525208 166.64828491 C110.30517031 167.68924628 110.30508855 168.73020765 110.30500431 169.8027133 C110.30419137 186.67392417 110.32333124 203.54504578 110.35152881 220.41623084 C110.38025543 237.74069073 110.39406923 255.06510708 110.39234126 272.3895914 C110.39167729 282.11548201 110.39717258 291.84127904 110.41869736 301.56714821 C110.43690619 309.84777165 110.44125892 318.12825907 110.42767851 326.40889386 C110.42114742 330.63282656 110.42103667 334.85649829 110.43838501 339.08040619 C110.45411464 342.95003182 110.45125353 346.81918954 110.43381675 350.68880375 C110.43074659 352.08581641 110.43437993 353.48286398 110.4455369 354.87983546 C110.50946653 363.45502955 110.35747829 371.5012859 104.15532815 378.02566081 C100.12065549 381.6970233 96.33166292 384.39860943 90.73558044 384.41459656 C89.9057515 384.42168137 89.07592255 384.42876617 88.22094727 384.43606567 C87.31903152 384.43358826 86.41711578 384.43111084 85.48786926 384.42855835 C84.53131943 384.43366928 83.57476959 384.43878021 82.5892334 384.44404602 C79.42566173 384.45795127 76.26230771 384.4569844 73.09870911 384.4546814 C70.89919453 384.45856806 68.6996807 384.46290267 66.50016785 384.46766663 C61.88845894 384.47513103 57.27682659 384.47483612 52.66511536 384.46957397 C46.75801422 384.4637818 40.85122688 384.48070337 34.94417763 384.50391865 C30.40082469 384.51865824 25.85754726 384.51952732 21.31417465 384.51640892 C19.13649754 384.51692211 16.95881619 384.52215932 14.78116226 384.53222084 C11.73397253 384.54457082 8.68739314 384.53780169 5.64021301 384.5262146 C4.74234573 384.53385834 3.84447845 384.54150208 2.91940308 384.54937744 C-3.52443686 384.49527713 -7.64147163 383.17380161 -12.69035339 378.96640015 C-19.43653678 370.97749877 -19.6448108 363.99701056 -19.58001709 353.89587402 C-19.58534684 352.44415961 -19.592415 350.99245072 -19.60106415 349.54075229 C-19.61966201 345.56465999 -19.61339647 341.58894088 -19.60291111 337.61283326 C-19.5959109 333.31959445 -19.61192334 329.02643168 -19.62490845 324.73321533 C-19.64654048 316.32741951 -19.64642351 307.92175912 -19.6382829 299.51594462 C-19.63198032 292.68268346 -19.63312232 285.84946176 -19.63955498 279.01620102 C-19.64045663 278.04324501 -19.64135829 277.070289 -19.64228727 276.06784948 C-19.64413849 274.09121505 -19.64600105 272.11458064 -19.64787482 270.13794623 C-19.66445076 251.60551884 -19.6557361 233.07316759 -19.63888925 214.54074477 C-19.62419505 197.59270993 -19.63881712 180.64485242 -19.66765941 163.69684042 C-19.69706567 146.28754847 -19.70802193 128.87833833 -19.69847721 111.46902263 C-19.69745467 109.49909204 -19.69646006 107.52916143 -19.6954937 105.5592308 C-19.69501731 104.59003101 -19.69454092 103.62083122 -19.69405009 102.62226174 C-19.69188745 95.80002405 -19.70168217 88.97786395 -19.71626472 82.15564346 C-19.73379727 73.83736464 -19.73365757 65.51931181 -19.71091307 57.20104183 C-19.6997788 52.95870074 -19.69658966 48.71675768 -19.71521378 44.4744339 C-19.73206064 40.58684419 -19.72561146 36.69999836 -19.70099699 32.81245647 C-19.69612696 31.41010758 -19.69959322 30.0076982 -19.71248443 28.6054001 C-19.78476524 20.12739885 -19.14195926 13.19152721 -14.06535339 6.15390015 C-9.92880007 2.23144742 -5.72440647 0.04449425 0 0 Z " fill="#3B82F6" transform="translate(104.06535339355469,63.846099853515625)"/>
</svg>
