<?xml version="1.0" standalone="no"?>
<!DOCTYPE svg PUBLIC "-//W3C//DTD SVG 20010904//EN"
 "http://www.w3.org/TR/2001/REC-SVG-20010904/DTD/svg10.dtd">
<svg version="1.0" xmlns="http://www.w3.org/2000/svg"
 width="512.000000pt" height="512.000000pt" viewBox="0 0 512.000000 512.000000"
 preserveAspectRatio="xMidYMid meet">

<g transform="translate(0.000000,512.000000) scale(0.100000,-0.100000)"
fill="#000000" stroke="none">
<path d="M1114 5012 c-49 -23 -80 -61 -95 -114 -8 -31 -6 -67 10 -166 l20
-127 -98 -100 c-54 -55 -104 -110 -110 -122 -20 -39 -13 -112 14 -159 33 -57
83 -79 228 -101 l119 -18 54 -115 c75 -157 109 -190 198 -190 98 0 129 27 206
181 l59 116 108 12 c134 16 173 25 207 52 60 47 83 146 50 212 -9 18 -56 73
-106 123 l-89 91 20 109 c28 145 27 187 -4 240 -28 48 -90 84 -146 84 -22 0
-80 -22 -160 -61 l-126 -61 -114 63 c-131 72 -178 82 -245 51z m223 -268 c65
-35 117 -56 137 -56 19 0 75 21 135 52 57 28 105 49 108 47 2 -3 -5 -54 -16
-113 -12 -60 -21 -120 -21 -133 0 -17 29 -53 96 -121 109 -112 112 -102 -41
-121 -55 -6 -112 -18 -127 -25 -18 -9 -44 -48 -84 -124 -32 -60 -61 -110 -65
-110 -3 0 -29 49 -57 109 -32 68 -60 116 -76 126 -13 9 -77 25 -141 35 -65 10
-119 20 -121 22 -2 3 35 40 83 83 47 43 92 93 99 111 13 31 9 81 -21 247 -2
15 -2 27 2 27 3 0 53 -25 110 -56z"/>
<path d="M61 5006 c-28 -15 -50 -52 -51 -83 0 -32 47 -157 91 -243 22 -41 73
-115 114 -165 148 -178 187 -248 230 -406 36 -136 39 -213 16 -377 -25 -170
-26 -227 -6 -352 37 -225 109 -374 279 -574 41 -48 90 -118 109 -155 67 -128
115 -338 102 -445 -3 -28 -13 -100 -22 -160 -8 -60 -13 -146 -11 -192 2 -64 0
-84 -10 -84 -7 0 -68 14 -135 31 -151 38 -210 37 -264 -7 -77 -63 -92 -104
-93 -258 0 -67 -3 -87 -13 -83 -49 18 -177 39 -223 35 -66 -6 -118 -43 -152
-109 -22 -42 -23 -53 -20 -219 3 -164 4 -177 27 -213 13 -21 40 -49 60 -62 27
-17 295 -87 1046 -270 556 -135 1026 -250 1046 -256 31 -8 39 -16 53 -54 26
-67 97 -139 174 -177 59 -30 76 -33 152 -33 76 0 93 3 152 33 77 38 148 110
174 177 19 50 10 46 243 105 68 17 136 37 151 45 27 14 50 52 50 85 0 50 -49
100 -97 100 -10 0 -118 -27 -241 -59 -247 -64 -268 -75 -279 -147 -12 -80 -79
-144 -153 -144 -73 0 -141 64 -153 144 -6 38 -27 70 -57 86 -13 7 -587 149
-1805 446 -171 41 -318 77 -328 80 -15 5 -17 20 -17 125 0 70 4 119 10 119 5
0 536 -129 1180 -286 l1170 -286 333 81 c182 44 710 173 1171 286 462 113 843
205 848 205 4 0 8 -54 8 -120 l0 -119 -37 -10 c-21 -5 -213 -52 -428 -103
-279 -66 -396 -98 -413 -113 -14 -12 -25 -35 -29 -61 -4 -33 -1 -45 21 -71 14
-17 37 -34 51 -37 15 -4 190 33 467 99 484 116 501 122 542 200 18 35 21 60
24 210 3 161 2 172 -20 214 -34 66 -86 103 -152 109 -46 4 -174 -17 -223 -35
-10 -4 -13 15 -13 80 0 121 -15 181 -56 227 -71 79 -124 85 -304 40 -65 -17
-125 -30 -132 -30 -10 0 -12 20 -10 84 2 46 -3 132 -11 192 -28 194 -29 210
-18 290 26 185 90 332 203 466 175 207 246 351 283 578 20 125 19 182 -6 352
-24 165 -21 239 16 374 43 161 82 230 230 409 80 96 137 196 179 313 30 84 31
102 12 141 -27 51 -103 67 -149 31 -16 -13 -33 -45 -47 -88 -34 -106 -84 -191
-181 -308 -139 -168 -194 -273 -246 -473 -33 -123 -36 -294 -9 -456 44 -261
-26 -493 -217 -722 -51 -62 -112 -145 -134 -185 -56 -97 -110 -262 -130 -395
-16 -113 -15 -138 19 -390 9 -69 9 -114 1 -178 -5 -47 -12 -88 -15 -90 -3 -3
-325 -83 -716 -179 l-712 -174 -357 88 c-197 48 -518 127 -715 175 -319 78
-357 89 -362 108 -16 58 -17 206 -3 297 38 228 29 358 -38 558 -47 139 -98
228 -212 365 -191 229 -261 461 -217 722 27 162 24 333 -9 456 -53 201 -108
306 -248 474 -93 112 -155 220 -185 322 -24 83 -88 115 -153 79z m1459 -3596
c476 -116 882 -215 903 -221 l37 -10 0 -114 c0 -63 -1 -115 -3 -115 -1 0 -414
101 -917 224 l-915 223 -3 117 c-2 109 -1 117 15 112 10 -3 407 -100 883 -216z
m2978 103 l-3 -116 -910 -223 c-500 -123 -913 -223 -917 -224 -5 0 -8 52 -8
115 l0 114 38 10 c20 6 188 47 372 92 184 45 578 141 875 214 297 73 544 134
548 134 4 1 6 -51 5 -116z"/>
<path d="M4335 4869 c-62 -36 -74 -111 -26 -160 49 -49 126 -35 156 28 19 40
14 71 -18 108 -25 29 -82 41 -112 24z"/>
<path d="M3510 4782 c-75 -25 -110 -45 -175 -97 l-55 -45 -74 11 c-176 26
-362 -57 -458 -205 -59 -91 -81 -177 -76 -291 4 -85 7 -100 46 -178 63 -128
95 -152 488 -372 311 -174 343 -189 389 -190 85 0 92 9 290 367 99 178 189
348 202 379 91 225 -18 489 -246 597 -66 32 -83 36 -175 39 -78 2 -113 -1
-156 -15z m230 -197 c61 -21 112 -66 146 -127 25 -46 29 -63 29 -128 0 -87 14
-54 -192 -427 -80 -145 -150 -263 -155 -263 -5 0 -138 71 -295 158 -200 109
-300 170 -329 199 -105 106 -98 284 16 386 92 84 186 94 326 37 39 -17 80 -6
108 27 72 86 96 109 141 129 59 28 141 31 205 9z"/>
<path d="M2240 3753 c-56 -22 -83 -89 -56 -141 20 -38 44 -52 91 -52 50 0 95
44 95 94 0 62 -76 120 -130 99z"/>
<path d="M1050 3633 c-55 -20 -81 -82 -55 -136 30 -63 107 -77 156 -28 73 74
-4 199 -101 164z"/>
<path d="M1550 3121 c-132 -43 -219 -152 -228 -286 -3 -58 5 -107 47 -292 28
-123 57 -236 65 -252 16 -29 69 -61 104 -61 37 0 466 101 508 120 56 24 123
92 154 155 20 41 25 65 25 135 0 73 -4 93 -28 142 -43 88 -131 157 -222 174
-31 5 -51 19 -89 61 -69 76 -130 106 -231 109 -44 2 -91 0 -105 -5z m161 -214
c22 -14 39 -37 47 -62 21 -64 41 -77 124 -84 40 -4 83 -12 95 -19 60 -33 68
-131 15 -185 -26 -26 -51 -34 -198 -68 -93 -21 -176 -39 -185 -39 -12 0 -24
38 -52 168 -20 92 -37 180 -37 195 0 96 109 149 191 94z"/>
<path d="M3218 2795 c-15 -8 -54 -53 -87 -99 l-61 -84 -120 -4 -119 -3 -36
-35 c-41 -40 -60 -93 -51 -144 4 -20 33 -70 67 -116 l60 -82 -30 -91 c-17 -51
-31 -108 -31 -128 0 -70 79 -149 150 -149 20 0 77 13 125 29 49 17 93 27 99
24 6 -4 44 -31 84 -62 63 -47 81 -55 125 -58 60 -5 109 16 141 60 18 24 22 48
26 145 l5 116 85 61 c116 84 141 142 101 232 -24 52 -52 70 -165 108 l-90 30
-27 88 c-31 102 -48 131 -92 157 -38 24 -119 26 -159 5z m87 -310 c22 -84 47
-109 134 -135 39 -11 71 -23 71 -25 0 -2 -27 -23 -60 -45 -75 -51 -90 -79 -90
-170 0 -38 -2 -70 -5 -70 -3 0 -32 20 -66 45 -70 51 -89 54 -178 24 -34 -12
-64 -19 -67 -17 -2 3 5 31 16 63 29 83 26 114 -15 171 -64 90 -65 84 19 84 41
0 86 5 100 11 14 7 44 38 66 70 23 33 45 59 49 59 4 0 16 -29 26 -65z"/>
<path d="M1718 1965 c-85 -48 -51 -185 46 -185 54 0 101 45 101 99 0 74 -82
122 -147 86z"/>
<path d="M3634 740 c-12 -4 -31 -21 -43 -36 -50 -64 -5 -154 79 -154 107 0
134 144 35 186 -39 16 -42 16 -71 4z"/>
</g>
</svg>
